# xmcd
#
# Track frame offsets: 
#        150
#        22228
#        40038
#        61458
#        80131
#        95126
#        108293
#        120301
#        136934
#        157797
#        174703
#        195536
#        212896
#        227334
#        244726
#        251299
#        268130
#        285558
#        300462
#        316567
#
# Disc length: 4359 seconds
#
# Revision: 0
# Processed by: cddbd v1.5.2PL0 Copyright (c) Steve Scherf et al.
# Submitted via: ExactAudioCopy v1.0b2
#
DISCID=0a110514
DTITLE=Various Artist - Acoustic Planet Vol.3
DYEAR=1998
DGENRE=Acoustic
TTITLE0=Lee Ritenour - Bahia Funk
TTITLE1=Lara and Reyes - Cielo Sin Nubes
TTITLE2=Armik - Molaga
TTITLE3=Francisco Carsia - Nothing's Gonna Change My
TTITLE4=Jesse Cook - Brio
TTITLE5=Chet Atkins - Mr. Guitar
TTITLE6=Nicolas de Augelis - Menuet
TTITLE7=Acoustic Alchemy - Overnight Sleeper
TTITLE8=Antonio Cobo - Piano
TTITLE9=Ottmar Liebert - Isla del Sol
TTITLE10=Craig Chaquico - The Greywolf Hunts Again
TTITLE11=Govi - Gypsy Heart
TTITLE12=Darras and Leroux - Borderline
TTITLE13=Eric Tingstad - Danza Mora
TTITLE14=Angelo - Guitar Boogie
TTITLE15=Paco de Lucía - Percussion Flamenca
TTITLE16=Bernard Bugo - Patchwork Rag
TTITLE17=Andres Segovia - Double
TTITLE18=Bruce Bee Var - Istanbul
TTITLE19=Dick Abell - Minuette
EXTD=
EXTT0=
EXTT1=
EXTT2=
EXTT3=
EXTT4=
EXTT5=
EXTT6=
EXTT7=
EXTT8=
EXTT9=
EXTT10=
EXTT11=
EXTT12=
EXTT13=
EXTT14=
EXTT15=
EXTT16=
EXTT17=
EXTT18=
EXTT19=
PLAYORDER=
